<?xml version="1.0" encoding="utf-8"?>
<!-- Generator: Adobe Illustrator 16.0.0, SVG Export Plug-In . SVG Version: 6.00 Build 0)  -->
<!DOCTYPE svg PUBLIC "-//W3C//DTD SVG 1.1//EN" "http://www.w3.org/Graphics/SVG/1.1/DTD/svg11.dtd">
<svg version="1.1" id="Ebene_1" xmlns="http://www.w3.org/2000/svg" xmlns:xlink="http://www.w3.org/1999/xlink" x="0px" y="0px"
	 width="50.1px" height="48.503px" viewBox="0 0 50.1 48.503" enable-background="new 0 0 50.1 48.503" xml:space="preserve">
<g>
	<g>
		<g>
			<path fill="#345DA8" d="M26.05,3.478c-11.294,0-20.449,9.157-20.449,20.448s9.155,20.445,20.449,20.445
				c11.293,0,20.448-9.154,20.448-20.445S37.343,3.478,26.05,3.478z"/>
		</g>
	</g>
	<g>
		<g>
			<linearGradient id="SVGID_1_" gradientUnits="userSpaceOnUse" x1="14.2427" y1="25.0635" x2="27.2114" y2="25.0635">
				<stop  offset="0" style="stop-color:#ECEBEB"/>
				<stop  offset="1" style="stop-color:#F7F6F6"/>
			</linearGradient>
			<path fill="url(#SVGID_1_)" d="M25.982,18.844c0.482,0.672,0.725,1.475,0.725,2.412c0,0.965-0.243,1.74-0.731,2.328
				c-0.273,0.328-0.675,0.629-1.207,0.9c0.808,0.293,1.416,0.758,1.827,1.395c0.41,0.637,0.616,1.408,0.616,2.316
				c0,0.938-0.235,1.777-0.704,2.521c-0.3,0.492-0.672,0.908-1.12,1.244c-0.506,0.387-1.1,0.65-1.787,0.793
				c-0.686,0.145-1.43,0.215-2.234,0.215h-7.124V17.158h7.64C23.811,17.186,25.176,17.748,25.982,18.844z M17.396,19.904v3.486
				h3.842c0.687,0,1.244-0.131,1.673-0.393c0.428-0.26,0.642-0.725,0.642-1.387c0-0.738-0.283-1.225-0.85-1.461
				c-0.488-0.164-1.11-0.246-1.868-0.246H17.396z M17.396,26.008v4.215h3.838c0.686,0,1.219-0.092,1.602-0.277
				c0.693-0.346,1.039-1.002,1.039-1.973c0-0.824-0.335-1.389-1.007-1.697c-0.376-0.172-0.902-0.262-1.581-0.268H17.396z"/>
			<linearGradient id="SVGID_2_" gradientUnits="userSpaceOnUse" x1="28.229" y1="27.166" x2="39.8267" y2="27.166">
				<stop  offset="0" style="stop-color:#ECEBEB"/>
				<stop  offset="1" style="stop-color:#F7F6F6"/>
			</linearGradient>
			<path fill="url(#SVGID_2_)" d="M36.769,21.514c0.816,0.365,1.49,0.943,2.021,1.73c0.479,0.695,0.791,1.5,0.933,2.416
				c0.082,0.537,0.116,1.312,0.101,2.32h-8.516c0.048,1.174,0.454,1.996,1.223,2.469c0.466,0.293,1.028,0.439,1.686,0.439
				c0.696,0,1.263-0.18,1.697-0.537c0.237-0.193,0.446-0.461,0.628-0.805h3.123c-0.083,0.693-0.461,1.398-1.133,2.115
				c-1.049,1.135-2.516,1.703-4.399,1.703c-1.557,0-2.929-0.479-4.119-1.438c-1.188-0.957-1.783-2.52-1.783-4.68
				c0-2.027,0.536-3.58,1.61-4.662c1.074-1.078,2.467-1.619,4.181-1.619C35.037,20.967,35.955,21.148,36.769,21.514z M32.197,24.154
				c-0.432,0.445-0.704,1.051-0.814,1.811h5.267c-0.055-0.812-0.327-1.426-0.814-1.848c-0.487-0.42-1.092-0.629-1.813-0.629
				C33.238,23.488,32.628,23.709,32.197,24.154z"/>
			<linearGradient id="SVGID_3_" gradientUnits="userSpaceOnUse" x1="30.5913" y1="18.8779" x2="37.3667" y2="18.8779">
				<stop  offset="0" style="stop-color:#ECEBEB"/>
				<stop  offset="1" style="stop-color:#F7F6F6"/>
			</linearGradient>
			<rect x="30.591" y="17.895" fill="url(#SVGID_3_)" width="6.775" height="1.967"/>
		</g>
	</g>
</g>
</svg>
