<?xml version="1.0" encoding="utf-8"?>
<!-- Generator: Adobe Illustrator 16.0.0, SVG Export Plug-In . SVG Version: 6.00 Build 0)  -->
<!DOCTYPE svg PUBLIC "-//W3C//DTD SVG 1.1//EN" "http://www.w3.org/Graphics/SVG/1.1/DTD/svg11.dtd">
<svg version="1.1" id="Ebene_1" xmlns="http://www.w3.org/2000/svg" xmlns:xlink="http://www.w3.org/1999/xlink" x="0px" y="0px"
	 width="50.1px" height="48.503px" viewBox="0 0 50.1 48.503" enable-background="new 0 0 50.1 48.503" xml:space="preserve">
<g>
	<g>
		<g>
			<path fill="#EA4C89" d="M26.262,3.519c-11.292,0-20.448,9.154-20.448,20.447s9.156,20.447,20.448,20.447
				c11.295,0,20.449-9.154,20.449-20.447S37.557,3.519,26.262,3.519z"/>
		</g>
	</g>
	<linearGradient id="SVGID_1_" gradientUnits="userSpaceOnUse" x1="13.1255" y1="24.6943" x2="39.1255" y2="24.6943">
		<stop  offset="0" style="stop-color:#ECEBEB"/>
		<stop  offset="1" style="stop-color:#F7F6F6"/>
	</linearGradient>
	<path fill="url(#SVGID_1_)" d="M26.125,11.694c-7.179,0-13,5.82-13,13c0,7.182,5.821,13,13,13c7.18,0,13-5.818,13-13
		C39.125,17.515,33.305,11.694,26.125,11.694z M34.375,17.683c1.462,1.719,2.393,3.898,2.552,6.291
		c-2.34-0.125-5.144-0.123-7.396,0.09c-0.282-0.719-0.575-1.424-0.891-2.1C31.238,20.841,33.236,19.364,34.375,17.683z
		 M26.125,13.862c2.627,0,5.036,0.936,6.912,2.492c-1.178,1.492-3.021,2.785-5.326,3.764c-1.26-2.326-2.707-4.332-4.25-5.912
		C24.315,13.987,25.204,13.862,26.125,13.862z M21.224,15.042c1.565,1.555,3.035,3.543,4.319,5.861
		c-2.447,0.744-5.25,1.174-8.239,1.174c-0.565,0-1.122-0.021-1.673-0.053C16.408,18.974,18.477,16.44,21.224,15.042z M15.311,24.177
		c0.616,0.027,1.239,0.039,1.872,0.031c3.41-0.043,6.591-0.572,9.316-1.447c0.255,0.535,0.499,1.084,0.732,1.646
		c-0.373,0.086-0.703,0.182-0.969,0.293c-3.732,1.562-6.668,4.09-8.262,7.145c-1.681-1.91-2.708-4.406-2.708-7.15
		C15.292,24.521,15.303,24.349,15.311,24.177z M26.125,35.528c-2.504,0-4.804-0.857-6.639-2.285c1.441-2.855,4.014-5.217,7.26-6.688
		c0.307-0.141,0.712-0.256,1.178-0.357c0.384,1.072,0.732,2.184,1.033,3.33c0.471,1.797,0.799,3.566,1.003,5.289
		C28.767,35.271,27.478,35.528,26.125,35.528z M31.981,33.802c-0.205-1.74-0.535-3.527-1.01-5.342
		c-0.23-0.879-0.496-1.732-0.777-2.568c2.125-0.174,4.673-0.146,6.695,0C36.522,29.214,34.656,32.077,31.981,33.802z"/>
</g>
</svg>
