<?xml version="1.0" encoding="utf-8"?>
<!-- Generator: Adobe Illustrator 16.0.0, SVG Export Plug-In . SVG Version: 6.00 Build 0)  -->
<!DOCTYPE svg PUBLIC "-//W3C//DTD SVG 1.1//EN" "http://www.w3.org/Graphics/SVG/1.1/DTD/svg11.dtd">
<svg version="1.1" id="Ebene_1" xmlns="http://www.w3.org/2000/svg" xmlns:xlink="http://www.w3.org/1999/xlink" x="0px" y="0px"
	 width="50.1px" height="48.503px" viewBox="0 0 50.1 48.503" enable-background="new 0 0 50.1 48.503" xml:space="preserve">
<g>
	<g>
		<g>
			<path fill="#3D5A9A" d="M25.641,3.608c-11.292,0-20.449,9.156-20.449,20.447s9.156,20.447,20.449,20.447
				c11.293,0,20.449-9.156,20.449-20.449C46.09,12.763,36.934,3.608,25.641,3.608z"/>
		</g>
	</g>
	<g>
		
			<linearGradient id="SVGID_1_" gradientUnits="userSpaceOnUse" x1="266.8442" y1="-343.7393" x2="278.7817" y2="-343.7393" gradientTransform="matrix(1 0 0 -1 -247.5 -319.2637)">
			<stop  offset="0" style="stop-color:#EDECEB"/>
			<stop  offset="1" style="stop-color:#F8F6F6"/>
		</linearGradient>
		<path fill="url(#SVGID_1_)" d="M27.284,37.267h-5.292V24.476h-2.646v-4.41h2.646v-2.646c0-3.596,1.492-5.734,5.734-5.734h3.531
			v4.408h-2.205c-1.652,0-1.762,0.617-1.762,1.768l-0.008,2.206h4l-0.469,4.41h-3.531v12.79H27.284z"/>
	</g>
</g>
</svg>
