<?xml version="1.0" encoding="utf-8"?>
<!-- Generator: Adobe Illustrator 16.0.0, SVG Export Plug-In . SVG Version: 6.00 Build 0)  -->
<!DOCTYPE svg PUBLIC "-//W3C//DTD SVG 1.1//EN" "http://www.w3.org/Graphics/SVG/1.1/DTD/svg11.dtd">
<svg version="1.1" id="Ebene_1" xmlns="http://www.w3.org/2000/svg" xmlns:xlink="http://www.w3.org/1999/xlink" x="0px" y="0px"
	 width="50.1px" height="48.503px" viewBox="0 0 50.1 48.503" enable-background="new 0 0 50.1 48.503" xml:space="preserve">
<g>
	<g>
		<g>
			<path fill="#D44836" d="M25.815,3.259c-11.293,0-20.449,9.157-20.449,20.45c0,11.291,9.156,20.445,20.449,20.445
				c11.293,0,20.448-9.154,20.448-20.445C46.263,12.416,37.108,3.259,25.815,3.259z"/>
		</g>
	</g>
	<g>
		<path fill="#FFFFFF" d="M30.642,12.535c-0.674,0.674-2.996,1.047-4.242,1.188c-0.904-0.541-1.951-0.873-3.082-0.873
			c-3.322,0-6.016,2.695-6.016,6.016c0,2.203,1.193,4.105,2.958,5.156c-0.691,0.686-2.022,2.132-0.043,4.773
			c-1.933,0.893-3.229,2.467-3.229,4.277c0,2.787,3.056,5.047,6.827,5.047c3.771,0,6.827-2.26,6.827-5.047
			c0-2.676-2.82-4.842-6.377-5.018c-0.869-0.525-1.67-1.602-0.656-3.201c3.185-0.154,5.725-2.764,5.725-5.988
			c0-0.855-0.185-1.668-0.508-2.404h1.815V12.535z M26.824,33.019c0,1.082-1.405,1.961-3.14,1.961c-1.734,0-3.139-0.879-3.139-1.961
			c0-1.086,1.405-1.963,3.139-1.963C25.418,31.056,26.824,31.933,26.824,33.019z M23.37,21.376c-1.184,0-2.145-1.23-2.145-2.746
			c0-1.518,0.961-2.748,2.145-2.748c1.184,0,2.145,1.23,2.145,2.748C25.515,20.146,24.554,21.376,23.37,21.376z"/>
	</g>
</g>
<text transform="matrix(1 0 0 1 30.3306 22.3638)" fill="#FFFFFF" font-family="'MyriadPro-Bold'" font-size="12">+</text>
</svg>
