<?xml version="1.0" encoding="utf-8"?>
<!-- Generator: Adobe Illustrator 16.0.0, SVG Export Plug-In . SVG Version: 6.00 Build 0)  -->
<!DOCTYPE svg PUBLIC "-//W3C//DTD SVG 1.1//EN" "http://www.w3.org/Graphics/SVG/1.1/DTD/svg11.dtd">
<svg version="1.1" id="Ebene_1" xmlns="http://www.w3.org/2000/svg" xmlns:xlink="http://www.w3.org/1999/xlink" x="0px" y="0px"
	 width="50.1px" height="48.503px" viewBox="0 0 50.1 48.503" enable-background="new 0 0 50.1 48.503" xml:space="preserve">
<g>
	<g>
		<path fill="#1176A9" d="M26,3.52c-11.293,0-20.449,9.155-20.449,20.446c0,11.293,9.156,20.449,20.449,20.449
			c11.293,0,20.448-9.156,20.448-20.449C46.449,12.675,37.293,3.52,26,3.52z"/>
	</g>
	<g>
		<g>
			<path fill-rule="evenodd" clip-rule="evenodd" fill="#FFFFFF" d="M20.896,33.817V19.433h-4.78v14.385H20.896L20.896,33.817z
				 M18.506,17.47c1.667,0,2.705-1.105,2.705-2.486c-0.031-1.41-1.038-2.484-2.674-2.484c-1.635,0-2.705,1.074-2.705,2.484
				c0,1.381,1.038,2.486,2.642,2.486H18.506L18.506,17.47z"/>
			<path fill-rule="evenodd" clip-rule="evenodd" fill="#FFFFFF" d="M23.541,33.817h4.782v-8.033c0-0.43,0.031-0.859,0.158-1.166
				c0.344-0.859,1.132-1.748,2.451-1.748c1.731,0,2.424,1.318,2.424,3.252v7.695h4.779v-8.248c0-4.418-2.357-6.473-5.504-6.473
				c-2.578,0-3.711,1.441-4.34,2.422h0.031v-2.086h-4.782C23.604,20.782,23.541,33.817,23.541,33.817L23.541,33.817z"/>
		</g>
	</g>
</g>
</svg>
