<?xml version="1.0" encoding="utf-8"?>
<!-- Generator: Adobe Illustrator 16.0.0, SVG Export Plug-In . SVG Version: 6.00 Build 0)  -->
<!DOCTYPE svg PUBLIC "-//W3C//DTD SVG 1.1//EN" "http://www.w3.org/Graphics/SVG/1.1/DTD/svg11.dtd">
<svg version="1.1" id="Ebene_1" xmlns="http://www.w3.org/2000/svg" xmlns:xlink="http://www.w3.org/1999/xlink" x="0px" y="0px"
	 width="50.1px" height="48.503px" viewBox="0 0 50.1 48.503" enable-background="new 0 0 50.1 48.503" xml:space="preserve">
<g>
	<g>
		<path fill="#2CAAE2" d="M25.949,4.078c-11.293,0-20.45,9.157-20.45,20.448c0,11.293,9.155,20.445,20.45,20.445
			c11.293,0,20.449-9.152,20.449-20.445C46.398,13.234,37.242,4.078,25.949,4.078z"/>
	</g>
	<g>
		
			<linearGradient id="SVGID_1_" gradientUnits="userSpaceOnUse" x1="263.5728" y1="-344.2559" x2="282.687" y2="-344.2559" gradientTransform="matrix(1 0 0 -1 -247.5 -319.2637)">
			<stop  offset="0" style="stop-color:#EDECEB"/>
			<stop  offset="1" style="stop-color:#F8F6F6"/>
		</linearGradient>
		<path fill="url(#SVGID_1_)" d="M31.98,31.369h-6.332c-0.882,0-1.628-0.312-2.246-0.926c-0.618-0.619-0.922-1.369-0.922-2.25V25.02
			h9.5c0.883,0,1.637-0.314,2.264-0.941c0.629-0.629,0.943-1.383,0.943-2.262c0-0.877-0.314-1.63-0.945-2.26
			c-0.631-0.626-1.387-0.941-2.271-0.941h-9.491v-3.201c0-0.879-0.315-1.633-0.938-2.258c-0.623-0.629-1.374-0.943-2.247-0.943
			c-0.899,0-1.661,0.308-2.283,0.923c-0.625,0.616-0.938,1.378-0.938,2.28v12.781c0,2.639,0.938,4.893,2.809,6.766
			c1.873,1.873,4.13,2.809,6.768,2.809h6.334c0.879,0,1.633-0.312,2.26-0.941c0.629-0.627,0.943-1.379,0.943-2.26
			c0-0.877-0.314-1.633-0.943-2.26C33.617,31.682,32.863,31.369,31.98,31.369z"/>
	</g>
</g>
</svg>
