<?xml version="1.0" encoding="utf-8"?>
<!-- Generator: Adobe Illustrator 16.0.0, SVG Export Plug-In . SVG Version: 6.00 Build 0)  -->
<!DOCTYPE svg PUBLIC "-//W3C//DTD SVG 1.1//EN" "http://www.w3.org/Graphics/SVG/1.1/DTD/svg11.dtd">
<svg version="1.1" id="Ebene_1" xmlns="http://www.w3.org/2000/svg" xmlns:xlink="http://www.w3.org/1999/xlink" x="0px" y="0px"
	 width="251px" height="207px" viewBox="0 0 251 207" enable-background="new 0 0 251 207" xml:space="preserve">
<path fill="#DECDB6" stroke="#000000" stroke-width="6" stroke-miterlimit="10" d="M190.726,30.776
	c-10.321,7.535-18.843,14.112-25.767,25.267C158.495,66.455,147.273,78.454,147.5,91c0.024,1.334-0.389,2.388-1.054,3.17
	c5.848,3.541,12.706,5.58,20.042,5.58c21.399,0,38.75-17.349,38.75-38.75C205.238,48.774,199.57,37.877,190.726,30.776z"/>
<path fill="#DECDB6" stroke="#000000" stroke-width="6" stroke-miterlimit="10" d="M104.679,93.329
	c-4.479-12.428-10.108-24.621-17.307-35.722c-6.615-10.2-15.163-21.372-27.201-25.286c-0.259-0.084-0.497-0.187-0.725-0.297
	C51.454,39.122,46.414,49.47,46.414,61c0,21.401,17.348,38.75,38.75,38.75c7.292,0,14.111-2.018,19.936-5.52
	C104.94,93.953,104.796,93.656,104.679,93.329z"/>
<path fill="none" stroke="#000000" stroke-miterlimit="10" d="M240.042,15.792"/>
<path fill="none" stroke="#000000" stroke-miterlimit="10" d="M240.042,15.792"/>
<path fill="#212526" d="M81.389,49.086c-1.503-0.616-5.311-4.539-5.632-6.012c-1.153-0.394-5.452,0.97-5.967,0
	c-5.271,4.402-8.626,11.021-8.626,18.426c0,13.255,10.745,24,24,24c3.839,0,11.627-2.4,14.845-4.004
	C92.771,70.178,90.594,59.093,81.389,49.086z"/>
<path fill="#212526" d="M181.218,42.558c-0.535,1.017-4.49,0.138-5.726,0.516c-0.252,1.131-2.676,3.601-3.818,4.438
	c-10.804,7.913-10.067,22.729-18.139,33.024c-0.217,0.276-0.443,0.51-0.676,0.716c3.872,2.677,8.566,4.249,13.63,4.249
	c13.254,0,24-10.745,24-24C190.489,53.799,186.857,46.95,181.218,42.558z"/>
<g>
	<path fill="#E09223" d="M12.438,15.792c4.866-0.374,9.811-0.396,14.759-0.034c4.931,0.462,9.86,1.306,14.718,2.583
		c4.868,1.257,9.578,3.132,14.156,5.305c4.558,2.21,8.994,4.769,13.116,7.771c1.051,0.726,1.994,1.582,2.962,2.408
		c0.987,0.807,1.863,1.73,2.779,2.609l1.374,1.318l1.327,1.36c0.878,0.912,1.797,1.79,2.627,2.743
		c3.45,3.704,6.597,7.658,9.519,11.748c5.866,8.176,10.743,16.955,14.935,25.988c8.335,18.11,13.971,37.213,18.001,56.526
		c2.008,9.666,3.604,19.404,4.828,29.187c0.615,4.892,1.13,9.795,1.548,14.711c0.411,4.938,0.746,9.799,0.893,14.866l-7.999,0.028
		c0.112-5.088,0.419-9.967,0.803-14.924c0.39-4.936,0.882-9.859,1.475-14.771c1.181-9.822,2.741-19.601,4.728-29.307
		c1.979-9.706,4.403-19.336,7.357-28.827c1.469-4.748,3.086-9.456,4.864-14.111c1.778-4.654,3.689-9.267,5.805-13.797
		c2.121-4.528,4.417-8.983,6.916-13.338c2.486-4.361,5.239-8.586,8.198-12.674c2.973-4.078,6.148-8.03,9.642-11.72
		c1.754-1.837,3.547-3.638,5.41-5.377l1.377-1.326c0.473-0.427,0.954-0.847,1.441-1.259c0.968-0.833,1.938-1.662,3.009-2.369
		c4.183-2.943,8.624-5.508,13.233-7.651c4.609-2.138,9.36-3.932,14.235-5.191c4.88-1.24,9.824-2.057,14.769-2.5
		c4.959-0.368,9.905-0.325,14.8,0.025c-4.893,0.473-9.731,1.114-14.457,2.213c-4.72,1.103-9.325,2.536-13.751,4.34
		c-4.409,1.852-8.644,4.025-12.639,6.543c-4.002,2.506-7.761,5.359-11.234,8.513c-0.9,0.746-1.749,1.558-2.66,2.293
		c-0.445,0.379-0.899,0.749-1.357,1.115l-1.313,1.171c-1.776,1.536-3.393,3.251-5.032,4.938c-3.239,3.42-6.206,7.114-8.997,10.942
		c-2.779,3.839-5.381,7.826-7.741,11.969c-2.373,4.135-4.564,8.386-6.596,12.722c-2.026,4.339-3.864,8.775-5.579,13.263
		c-1.716,4.488-3.28,9.042-4.704,13.646c-2.864,9.201-5.226,18.578-7.158,28.053c-1.938,9.474-3.466,19.042-4.622,28.655
		c-0.58,4.807-1.061,9.625-1.441,14.447c-0.375,4.801-0.676,9.695-0.779,14.394l-7.999,0.027c-0.136-4.685-0.465-9.562-0.866-14.346
		c-0.408-4.805-0.912-9.606-1.514-14.395c-1.199-9.578-2.762-19.111-4.723-28.55c-3.932-18.861-9.433-37.431-17.428-54.795
		c-4.018-8.659-8.666-17.009-14.181-24.693c-2.747-3.847-5.689-7.542-8.892-10.978c-0.771-0.889-1.622-1.695-2.434-2.541
		c-0.803-0.856-1.669-1.645-2.539-2.427c-1.72-1.591-3.559-3.024-5.276-4.607c-3.436-3.171-7.164-6.028-11.111-8.583
		c-3.952-2.549-8.141-4.772-12.523-6.629c-4.388-1.842-8.962-3.31-13.658-4.434C22.134,16.946,17.328,16.276,12.438,15.792z"/>
</g>
</svg>
