<?xml version="1.0" encoding="utf-8"?>
<!-- Generator: Adobe Illustrator 16.0.0, SVG Export Plug-In . SVG Version: 6.00 Build 0)  -->
<!DOCTYPE svg PUBLIC "-//W3C//DTD SVG 1.1//EN" "http://www.w3.org/Graphics/SVG/1.1/DTD/svg11.dtd">
<svg version="1.1" id="Ebene_1" xmlns="http://www.w3.org/2000/svg" xmlns:xlink="http://www.w3.org/1999/xlink" x="0px" y="0px"
	 width="300px" height="300px" viewBox="0 0 300 300" enable-background="new 0 0 300 300" xml:space="preserve">
<circle fill="#FFFFFF" cx="223.125" cy="204.821" r="15.875"/>
<circle fill="#FFFFFF" cx="225.738" cy="152.782" r="11.488"/>
<circle fill="#FFFFFF" cx="145.375" cy="169.321" r="24.125"/>
<circle fill="#FFFFFF" cx="201.125" cy="90.071" r="24.125"/>
<path id="_x37_" fill="#212526" stroke="#FFFFFF" stroke-miterlimit="10" d="M182.485,162.529l7.497-3.199l-5.127-12.029
	l-7.141,3.047c-2.811-4.625-6.605-8.68-11.283-11.757l2.967-7.37l-12.138-4.879l-2.87,7.118c-5.464-1.279-11.014-1.33-16.288-0.193
	l-3.138-7.366l-12.043,5.119l3.078,7.213c-4.512,2.86-8.445,6.687-11.436,11.36l-7.729-3.092l-4.867,12.108l7.589,3.06
	c-1.185,5.325-1.185,10.741-0.095,15.85l-7.936,3.386l5.126,12.047l7.79-3.32c2.775,4.392,6.458,8.251,10.952,11.212l-3.284,8.183
	l12.137,4.894l3.199-7.95c5.247,1.229,10.572,1.306,15.665,0.303l3.432,8.058l12.043-5.104l-3.285-7.725
	c4.486-2.714,8.446-6.385,11.48-10.896l7.876,3.164l4.892-12.15l-7.477-2.991C183.411,173.226,183.516,167.75,182.485,162.529z
	 M163.096,176.62c-3.805,9.513-14.602,14.104-24.094,10.278c-9.509-3.822-14.091-14.619-10.278-24.119
	c3.82-9.48,14.608-14.078,24.111-10.249C162.326,156.335,166.925,167.136,163.096,176.62z M152.342,153.741
	c-8.817-3.537-18.83,0.733-22.398,9.539c-3.537,8.83,0.725,18.841,9.543,22.39c8.835,3.553,18.837-0.712,22.398-9.544
	C165.438,167.309,161.16,157.294,152.342,153.741z M157.234,174.272c-2.508,6.254-9.613,9.281-15.873,6.756
	c-6.259-2.502-9.292-9.625-6.758-15.863c2.506-6.254,9.62-9.284,15.871-6.782C156.732,160.891,159.768,168.014,157.234,174.272z
	 M243.321,199.61l4.262-1.819l-2.914-6.838l-4.063,1.736c-1.591-2.632-3.751-4.936-6.414-6.69l1.687-4.185l-6.892-2.77l-1.633,4.04
	c-3.112-0.725-6.268-0.756-9.259-0.104l-1.781-4.191l-6.855,2.912l1.756,4.099c-2.567,1.629-4.799,3.799-6.502,6.452l-4.391-1.754
	l-2.774,6.882l4.321,1.737c-0.674,3.024-0.674,6.107-0.06,9.013l-4.514,1.923l2.923,6.848l4.417-1.885
	c1.582,2.493,3.683,4.689,6.232,6.375L209,226.037l6.898,2.789l1.824-4.522c2.975,0.697,6.008,0.739,8.896,0.175l1.962,4.58
	l6.838-2.909l-1.866-4.387c2.551-1.547,4.798-3.63,6.535-6.197l4.47,1.802l2.774-6.906l-4.244-1.7
	C243.848,205.692,243.909,202.581,243.321,199.61z M232.299,207.62c-2.161,5.411-8.299,8.018-13.703,5.845
	c-5.394-2.17-8.005-8.308-5.835-13.706c2.17-5.396,8.308-8.011,13.703-5.832C231.856,196.088,234.477,202.23,232.299,207.62z
	 M226.188,194.618c-5.016-2.01-10.712,0.415-12.735,5.416c-2.006,5.027,0.406,10.715,5.429,12.729
	c5.015,2.019,10.702-0.397,12.734-5.419C233.631,202.325,231.2,196.642,226.188,194.618z M228.971,206.288
	c-1.427,3.55-5.473,5.274-9.025,3.838c-3.555-1.425-5.282-5.471-3.84-9.02c1.428-3.553,5.464-5.274,9.017-3.853
	C228.675,198.682,230.405,202.727,228.971,206.288z M240.291,149.676l3.078-1.314l-2.101-4.922l-2.922,1.244
	c-1.15-1.895-2.706-3.553-4.626-4.82l1.22-3.016l-4.979-1.997l-1.176,2.917c-2.229-0.528-4.503-0.549-6.666-0.083l-1.288-3.016
	l-4.936,2.099l1.262,2.953c-1.85,1.176-3.458,2.736-4.685,4.65l-3.164-1.267l-1.997,4.962l3.111,1.256
	c-0.484,2.182-0.484,4.398-0.033,6.496l-3.259,1.383l2.099,4.936l3.19-1.355c1.143,1.796,2.646,3.375,4.496,4.585l-1.35,3.359
	l4.971,2.001l1.314-3.256c2.144,0.502,4.322,0.531,6.414,0.121l1.401,3.304l4.936-2.098l-1.348-3.159
	c1.84-1.111,3.457-2.619,4.712-4.466l3.215,1.294l2.006-4.972l-3.06-1.228C240.672,154.053,240.716,151.812,240.291,149.676z
	 M232.355,155.451c-1.556,3.891-5.981,5.77-9.872,4.209c-3.899-1.568-5.775-5.996-4.211-9.885c1.564-3.882,5.992-5.766,9.883-4.197
	C232.044,147.135,233.929,151.561,232.355,155.451z M227.947,146.075c-3.614-1.448-7.713,0.298-9.173,3.903
	c-1.452,3.623,0.294,7.719,3.917,9.173c3.612,1.46,7.711-0.29,9.171-3.908C233.308,151.629,231.56,147.527,227.947,146.075z
	 M229.951,154.482c-1.027,2.562-3.941,3.799-6.5,2.77c-2.559-1.023-3.804-3.941-2.774-6.5c1.029-2.555,3.95-3.805,6.509-2.775
	C229.746,149.005,230.99,151.919,229.951,154.482z M200.452,72.086c-9.7,0.021-17.554,7.867-17.569,17.572
	c0.016,9.71,7.869,17.553,17.569,17.579c9.706-0.025,17.555-7.868,17.569-17.579C218.007,79.953,210.158,72.106,200.452,72.086z
	 M200.452,102.117c-6.88,0-12.46-5.583-12.46-12.459c0-6.872,5.58-12.444,12.46-12.444c6.885,0,12.464,5.573,12.464,12.444
	C212.916,96.534,207.337,102.117,200.452,102.117z M246.294,97.668V84.316h-8.214c-0.791-5.619-2.797-10.828-5.757-15.395
	l5.887-5.883l-9.438-9.436l-5.599,5.607c-4.423-3.304-9.557-5.701-15.16-6.828v-8.107h-13.352v7.837
	c-5.676,0.866-10.949,2.947-15.502,6.022l-5.776-5.78l-9.433,9.439l5.657,5.659c-3.19,4.43-5.45,9.557-6.511,15.103h-8.486v13.35
	h8.357c0.901,5.486,2.955,10.62,5.949,15.049l-6.219,6.225l9.438,9.435l6.117-6.103c4.293,3.102,9.25,5.344,14.643,6.443v8.983
	l13.342,0.007v-8.732c5.46-0.828,10.526-2.794,14.959-5.683l6.328,6.331l9.441-9.437l-6.045-6.043
	c3.205-4.307,5.547-9.275,6.712-14.713H246.294z M200.452,108.576c-10.444,0-18.917-8.474-18.917-18.918
	c0-10.428,8.473-18.897,18.917-18.897c10.44,0,18.907,8.469,18.907,18.897C219.359,100.102,210.893,108.576,200.452,108.576z
	 M147.553,96.53l4.262-1.819l-2.914-6.838l-4.063,1.736c-1.591-2.632-3.751-4.936-6.414-6.69l1.687-4.185l-6.892-2.77l-1.633,4.04
	c-3.112-0.725-6.268-0.756-9.259-0.104l-1.781-4.191l-6.855,2.912l1.756,4.099c-2.567,1.629-4.799,3.799-6.502,6.452l-4.391-1.754
	l-2.774,6.882l4.321,1.737c-0.674,3.024-0.674,6.107-0.06,9.013l-4.514,1.923l2.923,6.848l4.417-1.885
	c1.582,2.493,3.683,4.689,6.232,6.375l-1.867,4.646l6.898,2.789l1.824-4.522c2.975,0.697,6.008,0.739,8.896,0.175l1.962,4.58
	l6.838-2.909l-1.866-4.387c2.551-1.547,4.798-3.63,6.535-6.197l4.47,1.802l2.774-6.906l-4.244-1.7
	C148.079,102.612,148.141,99.5,147.553,96.53z M136.53,104.54c-2.161,5.411-8.299,8.018-13.703,5.845
	c-5.394-2.17-8.005-8.308-5.835-13.706c2.17-5.396,8.308-8.011,13.703-5.832C136.088,93.007,138.708,99.15,136.53,104.54z
	 M130.419,91.538c-5.016-2.01-10.712,0.415-12.735,5.416c-2.006,5.027,0.406,10.715,5.429,12.729
	c5.015,2.019,10.702-0.397,12.734-5.419C137.862,99.245,135.432,93.561,130.419,91.538z M133.202,103.208
	c-1.427,3.55-5.473,5.274-9.025,3.838c-3.555-1.425-5.282-5.471-3.84-9.02c1.428-3.553,5.464-5.274,9.017-3.853
	C132.906,95.601,134.637,99.646,133.202,103.208z M101.96,129.203l3.078-1.314l-2.101-4.922l-2.922,1.244
	c-1.15-1.895-2.706-3.553-4.626-4.82l1.22-3.016l-4.979-1.997l-1.176,2.917c-2.229-0.528-4.503-0.549-6.666-0.083l-1.288-3.016
	l-4.936,2.099l1.262,2.953c-1.85,1.176-3.458,2.736-4.685,4.65l-3.164-1.267l-1.997,4.962l3.111,1.256
	c-0.484,2.182-0.484,4.398-0.033,6.496l-3.259,1.383l2.099,4.936l3.19-1.355c1.143,1.796,2.646,3.375,4.496,4.585l-1.35,3.359
	l4.971,2.001l1.314-3.256c2.144,0.502,4.322,0.531,6.414,0.121l1.401,3.304l4.936-2.098l-1.348-3.159
	c1.84-1.111,3.457-2.619,4.712-4.466l3.215,1.294l2.006-4.972l-3.06-1.228C102.341,133.58,102.385,131.339,101.96,129.203z
	 M94.025,134.979c-1.556,3.891-5.981,5.77-9.872,4.209c-3.899-1.568-5.775-5.996-4.211-9.885c1.564-3.882,5.992-5.766,9.883-4.197
	C93.713,126.662,95.598,131.088,94.025,134.979z M89.617,125.603c-3.614-1.448-7.713,0.298-9.173,3.903
	c-1.452,3.623,0.294,7.719,3.917,9.173c3.612,1.46,7.711-0.29,9.171-3.908C94.977,131.156,93.229,127.055,89.617,125.603z
	 M91.621,134.01c-1.027,2.562-3.941,3.799-6.5,2.77c-2.559-1.023-3.804-3.941-2.774-6.5c1.029-2.555,3.95-3.805,6.509-2.775
	C91.416,128.532,92.66,131.446,91.621,134.01z"/>
<g>
	<g>
		<path fill="#C05B24" stroke="#FFFFFF" stroke-miterlimit="10" d="M159.104,75.971c7.952-7.347,14.842-8.426,24.451-9.158
			c0.13,0,2.769-0.161,2.908-0.19l2.922-0.192c0.992-0.079,2.552-0.207,3.598-0.295c0.734-0.054,1.521-0.133,2.279-0.189
			c0.647,0.233,1.219,0.677,1.779,1.431l-17.314,11.431c-0.129,0.072-1.684,1.137-1.779,1.194c-2.337,1.573-4.002,4.012-4.597,6.794
			c-0.653,2.83-0.159,5.709,1.349,8.197c0.043,0.087,1.122,1.548,1.193,1.646l8.886,11.844c0.494,0.796,1.405,1.868,2.087,2.448
			c2.001,1.829,4.711,2.913,7.518,2.913c1.78,0,3.556-0.479,5.125-1.307c0.345-0.048,5.363-3.022,5.642-3.218l14.738-9.152
			c0.062,0,0.125,0,0.191,0c-0.019,1.092,0.456,1.822,0.317,2.878c-0.845,6.838-3.676,13.316-8.214,18.586
			c-5.829,6.774-13.918,11.035-22.798,11.956c-0.102-0.017-1.948-0.077-4.616,0.113c-6.442,0.451-15.146,2.233-20.131,8.007
			l-75.695,96.181l-0.237,0.229c-0.391,0.46-1.018,1.153-1.446,1.547c-3.562,3.533-8.029,5.577-12.896,5.98l0,0
			c-0.428,0.033-0.89,0.079-1.303,0.079l0,0c-5.12,0.081-10.047-1.67-13.967-5.038c-4.016-3.482-6.392-8.196-6.982-13.164
			c-0.626-5.023,0.654-10.224,3.715-14.563c0.373-0.559,0.842-1.161,1.43-1.813c2.48-2.694,62.49-65.694,85.1-88.399
			c7.035-8.123,8.211-20.955,8.316-22.02c0-0.461-0.033-0.889-0.033-1.256C150.519,90.718,153.493,82.49,159.104,75.971z"/>
	</g>
</g>
</svg>
