<?xml version="1.0" encoding="utf-8"?>
<!-- Generator: Adobe Illustrator 16.0.0, SVG Export Plug-In . SVG Version: 6.00 Build 0)  -->
<!DOCTYPE svg PUBLIC "-//W3C//DTD SVG 1.1//EN" "http://www.w3.org/Graphics/SVG/1.1/DTD/svg11.dtd">
<svg version="1.1" id="Ebene_1" xmlns="http://www.w3.org/2000/svg" xmlns:xlink="http://www.w3.org/1999/xlink" x="0px" y="0px"
	 width="300px" height="300px" viewBox="0 0 300 300" enable-background="new 0 0 300 300" xml:space="preserve">
<path fill="#FFFFFF" stroke="#212526" stroke-width="14" stroke-miterlimit="10" d="M249.437,178.771
	c0,5.121-4.152,9.272-9.271,9.272H76.282c-5.121,0-9.271-4.151-9.271-9.272V88.933c0-5.121,4.151-9.271,9.271-9.271h163.883
	c5.119,0,9.271,4.151,9.271,9.271V178.771z"/>
<rect x="70.766" y="85.027" fill="#FFFFFF" stroke="#212526" stroke-width="9" stroke-miterlimit="10" width="173.842" height="94.969"/>
<path fill="#FFFFFF" d="M182.004,185.33c0,1.63-1.322,2.951-2.952,2.951h-40.778c-1.63,0-2.951-1.321-2.951-2.951l0,0
	c0-1.63,1.321-2.951,2.951-2.951h40.778C180.682,182.379,182.004,183.7,182.004,185.33L182.004,185.33z"/>
<path fill="#212526" d="M212.308,225.022c0,2.372-1.923,4.293-4.292,4.293H106.607c-2.371,0-4.292-1.921-4.292-4.293l0,0
	c0-2.369,1.922-4.291,4.292-4.291h101.409C210.385,220.731,212.308,222.653,212.308,225.022L212.308,225.022z"/>
<rect x="79.565" y="93.74" fill="#C05B24" width="47.903" height="76.49"/>
<rect x="134.422" y="93.741" fill="#C05B24" width="46.357" height="76.62"/>
<rect x="186.961" y="93.741" fill="#C05B24" width="45.585" height="76.49"/>
<rect x="146.183" y="201.458" fill="#212526" width="24.145" height="21.462"/>
<path fill="#1E1E1C" stroke="#FFFFFF" stroke-width="16" stroke-miterlimit="10" d="M260.926,203.063
	c0,3.332-2.703,6.034-6.035,6.034H230.64c-3.331,0-6.034-2.702-6.034-6.034v-41.364c0-3.332,2.703-6.034,6.034-6.034h24.251
	c3.332,0,6.035,2.702,6.035,6.034V203.063z"/>
<path fill="#FFFFFF" stroke="#212526" stroke-width="9" stroke-miterlimit="10" d="M260.941,203.13c0,3.331-2.702,6.034-6.035,6.034
	h-24.25c-3.332,0-6.034-2.703-6.034-6.034v-41.364c0-3.333,2.702-6.035,6.034-6.035h24.25c3.333,0,6.035,2.702,6.035,6.035V203.13z"
	/>
<rect x="225.034" y="156.746" fill="#212526" width="35.082" height="51.18"/>
<path fill="#FFFFFF" d="M246.909,155.896c0,0.569-0.462,1.031-1.032,1.031h-6.19c-0.57,0-1.03-0.462-1.03-1.031l0,0
	c0-0.57,0.46-1.032,1.03-1.032h6.19C246.447,154.864,246.909,155.326,246.909,155.896L246.909,155.896z"/>
<rect x="227.098" y="158.884" fill="#FFFFFF" width="30.956" height="45.467"/>
<circle fill="#FFFFFF" cx="242.526" cy="208.066" r="2.302"/>
<path fill="#1E1E1C" stroke="#FFFFFF" stroke-width="16" stroke-miterlimit="10" d="M50.447,222.579
	c-4.696,0-8.506-3.81-8.506-8.506v-34.188c0-4.695,3.81-8.506,8.506-8.506h58.311c4.699,0,8.506,3.811,8.506,8.508v34.187
	c0,4.697-3.808,8.507-8.506,8.507L50.447,222.579z"/>
<path fill="#FFFFFF" stroke="#212526" stroke-width="9" stroke-miterlimit="10" d="M50.355,222.602
	c-4.696,0-8.506-3.809-8.506-8.507v-34.187c0-4.696,3.81-8.506,8.506-8.506h58.31c4.697,0,8.507,3.81,8.507,8.508v34.185
	c0,4.698-3.81,8.507-8.507,8.507H50.355z"/>
<rect x="43.594" y="171.984" fill="#212526" width="72.146" height="49.457"/>
<path fill="#FFFFFF" d="M116.938,202.82c-0.804,0-1.454-0.65-1.454-1.454v-8.728c0-0.804,0.65-1.454,1.454-1.454l0,0
	c0.804,0,1.456,0.65,1.456,1.454v8.728C118.394,202.17,117.742,202.82,116.938,202.82L116.938,202.82z"/>
<rect x="48.633" y="174.894" fill="#FFFFFF" width="64.093" height="43.636"/>
<circle fill="#FFFFFF" cx="43.397" cy="196.642" r="3.247"/>
<rect x="232.481" y="161.442" fill="#C05B24" width="20.152" height="40.466"/>
<rect x="82.73" y="177.571" fill="#C05B24" width="25.229" height="37.858"/>
<rect x="53.295" y="177.571" fill="#C05B24" width="25.229" height="37.858"/>
</svg>
