<?xml version="1.0" encoding="utf-8"?>
<!-- Generator: Adobe Illustrator 16.0.0, SVG Export Plug-In . SVG Version: 6.00 Build 0)  -->
<!DOCTYPE svg PUBLIC "-//W3C//DTD SVG 1.1//EN" "http://www.w3.org/Graphics/SVG/1.1/DTD/svg11.dtd">
<svg version="1.1" id="Ebene_1" xmlns="http://www.w3.org/2000/svg" xmlns:xlink="http://www.w3.org/1999/xlink" x="0px" y="0px"
	 width="300px" height="300px" viewBox="0 0 300 300" enable-background="new 0 0 300 300" xml:space="preserve">
<polygon fill="#FFFFFF" points="90,100 69,123.6 72,164 70.333,241.334 228.667,244 231,161 231,118.333 149.506,60.005 "/>
<g>
	<path fill="#212526" d="M228.691,106.239L159.91,50.722c-2.566-2.115-6.1-4.022-10.319-4.022c-4.206,0-7.812,1.95-10.376,4.208
		L69.318,107.48c-7.681,5.866-8.875,13.782-8.875,17.293v111.206c0,8.634,7.904,15.699,17.563,15.699h142.999
		c9.659,0,17.563-7.065,17.563-15.699V124.773C238.569,120.871,235.617,112.41,228.691,106.239z M220.593,230.68
		c-1.954,2.389-5.464,2.759-7.864,0.83l-62.285-50.262c-0.504-0.459-0.717-0.589-0.814-0.633c-0.101,0.044-0.362,0.195-0.908,0.687
		L85.75,232.326c-1.049,0.839-2.302,1.255-3.545,1.255c-1.625,0-3.227-0.709-4.328-2.071c-1.95-2.398-1.58-5.908,0.817-7.862
		l50.894-41.2l-51.962-42.084c-0.044-1.057-0.075-2.214-0.075-3.564c-1.026-11.537,0.544-14.327,2.868-16.781l69.25-56.027
		l67.847,54.698c2.541,1.985,4.144,7.97,3.849,15.873c0,1.048-0.029,1.541-0.029,1.541v4.761l-51.58,41.627l49.997,40.339
		C222.152,224.77,222.52,228.281,220.593,230.68z"/>
</g>
<g>
	<path fill="#212526" stroke="#FFFFFF" stroke-width="4" stroke-miterlimit="10" d="M229.267,106.239l-68.781-55.518
		c-2.566-2.115-6.1-4.022-10.319-4.022c-4.206,0-7.812,1.95-10.376,4.208L69.893,107.48c-7.681,5.866-8.875,13.782-8.875,17.293
		v111.206c0,8.634,7.904,15.699,17.563,15.699h142.999c9.659,0,17.563-7.065,17.563-15.699V124.773
		C239.145,120.871,236.192,112.41,229.267,106.239z"/>
</g>
<polygon fill="#FFFFFF" points="129.587,46.7 86,184.334 118.333,198.667 185.268,216.627 228.667,79.333 134.667,43.667 "/>
<g>
	<path fill="#C05B24" stroke="#FFFFFF" stroke-width="3" stroke-miterlimit="10" d="M214.743,89.949
		c0.709-2.393-1.259-5.149-4.357-6.148l-72.678-23.428c-3.119-1.004-6.215,0.12-6.921,2.513c-0.706,2.373,1.246,5.104,4.364,6.108
		l72.679,23.428C210.93,93.422,214.038,92.323,214.743,89.949z"/>
	<path fill="#C05B24" stroke="#FFFFFF" stroke-width="3" stroke-miterlimit="10" d="M233.437,89.696
		c2.992-9.344-1.3-19.881-10.996-23.106l0.004-0.015L138.64,39.727c-9.77-2.994-19.373,3.091-22.383,12.43L77.56,172.947
		c-2.98,9.369,1.297,19.902,10.986,23.145l83.806,26.848c9.771,2.992,19.386-3.09,22.387-12.451l36.495-113.855L233.437,89.696z
		 M176.464,210.109l-83.803-26.865c-1.521-0.488-3.252-3.025-2.26-6.184L129.097,56.27c1.026-3.141,3.885-4.182,5.424-3.688
		l83.808,26.847c1.539,0.494,3.262,3.002,2.269,6.153l-2.223,6.932l-36.476,113.861
		C180.876,209.523,178.009,210.586,176.464,210.109z"/>
	<path fill="#C05B24" stroke="#FFFFFF" stroke-width="3" stroke-miterlimit="10" d="M209.572,105.993
		c0.709-2.391-1.259-5.147-4.357-6.147l-72.676-23.428c-3.122-1.005-6.217,0.119-6.923,2.513c-0.704,2.373,1.246,5.104,4.365,6.109
		l72.677,23.427C205.758,109.467,208.867,108.368,209.572,105.993z"/>
	<path fill="#C05B24" stroke="#FFFFFF" stroke-width="3" stroke-miterlimit="10" d="M204.448,121.892
		c0.709-2.392-1.257-5.148-4.356-6.147l-72.677-23.428c-3.12-1.005-6.215,0.119-6.922,2.512c-0.706,2.373,1.245,5.105,4.364,6.108
		l72.678,23.428C200.635,125.366,203.744,124.267,204.448,121.892z"/>
	<path fill="#C05B24" stroke="#FFFFFF" stroke-width="3" stroke-miterlimit="10" d="M199.513,137.207
		c0.709-2.393-1.258-5.148-4.357-6.149l-72.676-23.426c-3.121-1.005-6.216,0.119-6.921,2.511c-0.706,2.374,1.245,5.105,4.364,6.109
		L192.6,139.68C195.699,140.681,198.809,139.582,199.513,137.207z"/>
	<path fill="#C05B24" stroke="#FFFFFF" stroke-width="3" stroke-miterlimit="10" d="M194.248,153.542
		c0.71-2.39-1.256-5.147-4.357-6.147l-72.675-23.427c-3.122-1.003-6.216,0.12-6.923,2.513c-0.705,2.373,1.247,5.104,4.366,6.109
		l72.677,23.429C190.435,157.018,193.544,155.919,194.248,153.542z"/>
	<path fill="#C05B24" stroke="#FFFFFF" stroke-width="3" stroke-miterlimit="10" d="M190.057,170.869
		c0.71-2.393-1.257-5.146-4.357-6.147l-72.675-23.427c-3.122-1.005-6.215,0.117-6.923,2.512c-0.705,2.373,1.247,5.104,4.366,6.109
		l72.676,23.426C186.243,174.344,189.353,173.242,190.057,170.869z"/>
	<path fill="#C05B24" stroke="#FFFFFF" stroke-width="3" stroke-miterlimit="10" d="M185.122,186.186
		c0.71-2.395-1.258-5.146-4.356-6.148l-72.678-23.428c-3.122-1.004-6.215,0.118-6.921,2.512c-0.706,2.373,1.246,5.104,4.364,6.109
		l72.678,23.428C181.308,189.658,184.417,188.559,185.122,186.186z"/>
	<path fill="#C05B24" stroke="#FFFFFF" stroke-width="3" stroke-miterlimit="10" d="M180.474,200.609
		c0.71-2.393-1.258-5.15-4.357-6.148l-72.675-23.428c-3.122-1.004-6.215,0.117-6.923,2.512c-0.704,2.373,1.247,5.104,4.365,6.109
		l72.678,23.424C176.659,204.082,179.769,202.982,180.474,200.609z"/>
</g>
<polygon fill="#212526" points="149.629,180.615 205.03,225.298 160.321,231.333 101.188,219.817 "/>
<polyline fill="#212526" points="129.587,182.447 82.372,144.208 66,167.5 72.335,199.666 87.367,216.627 "/>
<polyline fill="#212526" points="206.63,212.244 169.754,182.491 233.335,131.333 "/>
</svg>
