<?xml version="1.0" encoding="utf-8"?>
<!-- Generator: Adobe Illustrator 16.0.0, SVG Export Plug-In . SVG Version: 6.00 Build 0)  -->
<!DOCTYPE svg PUBLIC "-//W3C//DTD SVG 1.1//EN" "http://www.w3.org/Graphics/SVG/1.1/DTD/svg11.dtd">
<svg version="1.1" id="Ebene_1" xmlns="http://www.w3.org/2000/svg" xmlns:xlink="http://www.w3.org/1999/xlink" x="0px" y="0px"
	 width="300px" height="300px" viewBox="0 0 300 300" enable-background="new 0 0 300 300" xml:space="preserve">
<polygon fill="#FFFFFF" stroke="#1E1E1C" stroke-miterlimit="10" points="158.302,67 135.943,72.932 129.764,91.64 129.764,118.105 
	93.507,111.175 63.849,111.175 57.46,123.124 61.111,165.104 69.78,225.334 89.401,234.46 112.216,228.528 142.331,226.247 
	194.805,228.528 223.096,221.638 233.133,184.268 233.133,143.201 221.27,121.299 211.918,111.175 211.918,77.495 205.756,67 
	181.116,67 "/>
<g>
	<polygon fill="#C05B24" stroke="#FFFFFF" stroke-miterlimit="10" points="65.027,112.838 58,133.919 81.243,139.865 
		88.271,231.217 112.054,227.433 112.054,114.72 	"/>
	<polygon fill="#C05B24" stroke="#FFFFFF" stroke-miterlimit="10" points="149.16,67 133.676,71.757 130.433,109.595 
		213.454,112.838 207.729,69.595 165.027,65.271 	"/>
	<g>
		<path fill="#C05B24" stroke="#FFFFFF" stroke-width="2" stroke-miterlimit="10" d="M170.859,127.646
			c-10.526,0.029-20.994,4.006-29.024,12.02l-0.017,0.031c-8.025,8.003-12.022,18.482-12.054,29.02
			c0.032,10.499,4.028,20.986,12.071,29.009c8.008,8.025,18.477,12.031,29.002,12.031c10.53,0,21.015-4.006,29.041-12.031
			c8.026-8.022,12.023-18.51,12.04-29.009c-0.017-10.538-4.014-21.017-12.018-29.051
			C191.852,131.651,181.367,127.674,170.859,127.646z M192.448,190.297c-11.919,11.932-31.251,11.932-43.183,0
			c-11.929-11.911-11.929-31.271,0-43.182c11.932-11.91,31.264-11.91,43.183,0C204.381,159.025,204.381,178.386,192.448,190.297z"/>
		<path fill="#212526" stroke="#FFFFFF" stroke-width="3" stroke-miterlimit="10" d="M231.152,102.399h-12.396V79.458
			c-0.152-11.75-10.208-20.139-21.482-20.158h-52.83c-11.305,0.02-21.338,8.408-21.473,20.158v22.942h-15.674
			c-1.371,0-2.675,0.242-3.925,0.605c-1.312-0.363-2.666-0.605-4.078-0.605H68.002c-8.622,0-15.669,7.046-15.669,15.646v108.671
			c0,8.601,7.048,15.646,15.669,15.646h31.291c4.571,0,8.657-2.02,11.535-5.167h120.325c8.161,0,14.835-6.784,14.835-15.081V117.48
			C245.987,109.182,239.313,102.399,231.152,102.399z M100.867,223.649c-2.864,0-5.176-2.122-5.176-4.702v-85.752
			c0-2.313-2.111-4.242-4.656-4.242H71.394c-2.858,0-5.17-2.111-5.17-4.702c0-2.606,2.312-4.7,5.17-4.7h19.641
			c8.286,0.017,14.98,6.104,14.999,13.644l0.022,85.752C106.055,221.527,103.721,223.649,100.867,223.649z M138.465,79.458
			c0-1.889,2.16-4.625,5.978-4.665h52.83c3.806,0.041,5.966,2.796,5.966,4.665v22.942h-64.774V79.458z M207.196,205.043
			c-10.001,10.005-23.167,15.052-36.278,15.052c-0.027,0-0.059,0-0.081,0c-13.138,0.021-26.321-5.027-36.314-15.052
			c-10.036-10.012-15.091-23.216-15.091-36.326c0-13.145,5.036-26.344,15.091-36.36h0.01c10.011-10.021,23.193-15.038,36.327-15.038
			c13.111,0,26.294,5.026,36.337,15.061c10.031,10.012,15.06,23.192,15.037,36.337C222.256,181.85,217.211,195.031,207.196,205.043z
			"/>
		<path fill="#C05B24" stroke="#FFFFFF" stroke-width="6" stroke-miterlimit="10" d="M168.085,145.762
			c-11.794,1.414-20.38,11.367-20.38,22.924c0,1,0.081,1.947,0.188,2.816c0.313,2.635,2.537,4.562,5.118,4.562
			c0.215,0,0.426-0.021,0.637-0.041c2.836-0.343,4.856-2.938,4.512-5.773c-0.089-0.604-0.131-1.141-0.131-1.564
			c0.02-6.369,4.772-11.901,11.257-12.688c2.833-0.322,4.84-2.887,4.531-5.732C173.473,147.448,170.908,145.419,168.085,145.762z"/>
	</g>
</g>
</svg>
